Cover
 
http://www.shotpix.com/images/80246035938749816324.png

General
Complete name : Sorority.Party.Massacre.2013.720p.BRRiP.x264-Acesan8s
Format : MPEG-4
Format profile : Base Media
Codec ID : isom
File size : 2.00 GiB
Duration : 1h 43mn
Overall bit rate mode : Variable
Overall bit rate : 2 770 Kbps
Encoded date : UTC 2013-03-14 16:27:04
Tagged date : UTC 2013-03-14 16:27:04

Video
ID : 1
Format : AVC
Format/Info : Advanced Video Codec
Format profile : High@L4.1
Format settings, CABAC : Yes
Format settings, ReFrames : 5 frames
Codec ID : avc1
Codec ID/Info : Advanced Video Coding
Duration : 1h 43mn
Bit rate : 2 127 Kbps
Maximum bit rate : 8 065 Kbps
Width : 1 280 pixels
Height : 720 pixels
Display aspect ratio : 16:9
Frame rate mode : Constant
Frame rate : 23.976 fps
Color space : YUV
Chroma subsampling : 4:2:0
Bit depth : 8 bits
Scan type : Progressive
Bits/(Pixel*Frame) : 0.096
Stream size : 1.54 GiB (77%)
Writing library : x264 core 129 r2245 bc13772

Audio
ID : 2
Format : AAC
Format/Info : Advanced Audio Codec
Format profile : LC
Codec ID : 40
Duration : 1h 43mn
Bit rate mode : Variable
Bit rate : 640 Kbps
Maximum bit rate : 655 Kbps
Channel(s) : 6 channels
Channel positions : Front: L C R, Side: L R, LFE
Sampling rate : 48.0 KHz
Compression mode : Lossy
Delay relative to video : 83ms
Stream size : 473 MiB (23%)
Source : 1080P-VETO (thanks)

Cast:

Marissa Skell .... Paige
Ed O'Ross ........ Sheriff Lumpkin
Eve Mauro ........ Brooklyn
Thomas Downey .... Det. Watts
Casey Fitzgerald . Holly

Plot: Afraid of losing his badge is in a detective from the big city
with it to a sheriff from a village to help with a routine job for a
couple of missing persons. He discovers that the past two decades,
every year at least one girl disappears in the sleepy fishing village Grizzly Cove.
 
http://www.imdb.com/title/tt2202569/

Screens:
 
http://www.shotpix.com/images/51852991798392976101.png
 
http://www.shotpix.com/images/75564409617603883217.png
 
http://www.shotpix.com/images/07963816129269131698.png
 
http://www.shotpix.com/images/81642105616310509042.png
 
http://www.shotpix.com/images/90270215416815984801.png